<?xml version="1.0" encoding="utf-8"?>
<!-- Generator: Adobe Illustrator 28.2.0, SVG Export Plug-In . SVG Version: 6.00 Build 0)  -->
<svg version="1.1" id="图层_1" xmlns="http://www.w3.org/2000/svg" xmlns:xlink="http://www.w3.org/1999/xlink" x="0px" y="0px"
	 width="216px" height="216px" viewBox="0 0 216 216" style="enable-background:new 0 0 216 216;" xml:space="preserve">
<style type="text/css">
	.st0{fill-rule:evenodd;clip-rule:evenodd;fill:#333333;}
	.st1{fill-rule:evenodd;clip-rule:evenodd;fill:#999999;}
</style>
<path class="st0" d="M37.4,0h141.2c2.4,0,4.8,0.2,7.1,0.7c-4-0.3-7.9-0.4-11.9-0.4C126.9,0.2,82,19.5,49.7,53.6
	C32.5,71.9,53.9,86,65.9,70.8c38-40.7,95.7-56.6,149.2-41c0.5,2.5,0.8,5.1,0.8,7.6v17.3C151.4,31.5,80.3,65.1,57.1,129.6
	c-10,28-9.7,58.6,0.9,86.4H37.4C16.8,215.9,0.1,199.2,0,178.6V37.4C0.1,16.8,16.8,0.1,37.4,0z"/>
<g>
	<path class="st1" d="M129.5,81c-50,24.6-70.6,85-46.1,135h25.5c-9-13.2-13.8-28.7-13.8-44.6c-0.1-43.5,35.2-78.8,78.7-78.8
		c19.2-0.3,19.1,22.8,0,23.1c-17.5,0-34.1,8.2-44.6,22.3c-18.4,24.7-13.4,59.6,11.2,78h38.2c7.9,0,15.3-2.5,21.3-6.8l-7.7-7.8
		l1.3-1.3l-1.9-1.9c-13.1,9.8-31.6,8.7-43.5-3.2c-13-13-13-34.1,0-47.1c13.1-13,34.2-13,47.1,0.1c11.9,11.8,12.9,30.4,3.2,43.4
		l1.9,1.9l1.3-1.3l7.7,7.8c4.2-6,6.7-13.4,6.8-21.3V79.9C188.5,67.3,156.7,67.7,129.5,81z"/>
	<path class="st1" d="M200,209.2"/>
	<path class="st1" d="M162.7,162.6c-4.9,5-4.9,12.9,0,17.8s12.9,4.9,17.8,0s4.9-12.9,0-17.8S167.6,157.7,162.7,162.6z"/>
</g>
</svg>
